<svg width="108" height="42" viewBox="0 0 108 42" fill="none" xmlns="http://www.w3.org/2000/svg">
<path d="M40.9727 33C40.7383 32.543 40.5684 31.9746 40.4629 31.2949C39.2324 32.666 37.6328 33.3516 35.6641 33.3516C33.8008 33.3516 32.2539 32.8125 31.0234 31.7344C29.8047 30.6562 29.1953 29.2969 29.1953 27.6562C29.1953 25.6406 29.9395 24.0938 31.4277 23.0156C32.9277 21.9375 35.0898 21.3926 37.9141 21.3809H40.252V20.291C40.252 19.4121 40.0234 18.709 39.5664 18.1816C39.1211 17.6543 38.4121 17.3906 37.4395 17.3906C36.584 17.3906 35.9102 17.5957 35.418 18.0059C34.9375 18.416 34.6973 18.9785 34.6973 19.6934H29.6172C29.6172 18.5918 29.957 17.5723 30.6367 16.6348C31.3164 15.6973 32.2773 14.9648 33.5195 14.4375C34.7617 13.8984 36.1562 13.6289 37.7031 13.6289C40.0469 13.6289 41.9043 14.2207 43.2754 15.4043C44.6582 16.5762 45.3496 18.2285 45.3496 20.3613V28.6055C45.3613 30.4102 45.6133 31.7754 46.1055 32.7012V33H40.9727ZM36.7715 29.4668C37.5215 29.4668 38.2129 29.3027 38.8457 28.9746C39.4785 28.6348 39.9473 28.1836 40.252 27.6211V24.3516H38.3535C35.8105 24.3516 34.457 25.2305 34.293 26.9883L34.2754 27.2871C34.2754 27.9199 34.498 28.4414 34.9434 28.8516C35.3887 29.2617 35.998 29.4668 36.7715 29.4668ZM55.334 9.30469V13.9805H58.5859V17.707H55.334V27.1992C55.334 27.9023 55.4688 28.4062 55.7383 28.7109C56.0078 29.0156 56.5234 29.168 57.2852 29.168C57.8477 29.168 58.3457 29.127 58.7793 29.0449V32.8945C57.7832 33.1992 56.7578 33.3516 55.7031 33.3516C52.1406 33.3516 50.3242 31.5527 50.2539 27.9551V17.707H47.4766V13.9805H50.2539V9.30469H55.334ZM66.7773 33H61.6797V13.9805H66.7773V33ZM61.3809 9.05859C61.3809 8.29688 61.6328 7.66992 62.1367 7.17773C62.6523 6.68555 63.3496 6.43945 64.2285 6.43945C65.0957 6.43945 65.7871 6.68555 66.3027 7.17773C66.8184 7.66992 67.0762 8.29688 67.0762 9.05859C67.0762 9.83203 66.8125 10.4648 66.2852 10.957C65.7695 11.4492 65.084 11.6953 64.2285 11.6953C63.373 11.6953 62.6816 11.4492 62.1543 10.957C61.6387 10.4648 61.3809 9.83203 61.3809 9.05859ZM78.0977 26.7949L81.6309 13.9805H86.9395L80.5234 33H75.6719L69.2559 13.9805H74.5645L78.0977 26.7949ZM88.1172 23.3145C88.1172 21.4277 88.4805 19.7461 89.207 18.2695C89.9336 16.793 90.9766 15.6504 92.3359 14.8418C93.707 14.0332 95.2949 13.6289 97.0996 13.6289C99.666 13.6289 101.758 14.4141 103.375 15.9844C105.004 17.5547 105.912 19.6875 106.1 22.3828L106.135 23.6836C106.135 26.6016 105.32 28.9453 103.691 30.7148C102.062 32.4727 99.877 33.3516 97.1348 33.3516C94.3926 33.3516 92.2012 32.4727 90.5605 30.7148C88.9316 28.957 88.1172 26.5664 88.1172 23.543V23.3145ZM93.1973 23.6836C93.1973 25.4883 93.5371 26.8711 94.2168 27.832C94.8965 28.7812 95.8691 29.2559 97.1348 29.2559C98.3652 29.2559 99.3262 28.7871 100.018 27.8496C100.709 26.9004 101.055 25.3887 101.055 23.3145C101.055 21.5449 100.709 20.1738 100.018 19.2012C99.3262 18.2285 98.3535 17.7422 97.0996 17.7422C95.8574 17.7422 94.8965 18.2285 94.2168 19.2012C93.5371 20.1621 93.1973 21.6562 93.1973 23.6836Z" fill="#6AD996"/>
<circle cx="10" cy="23" r="10" fill="#6AD996"/>
</svg>
