<svg width="118" height="43" viewBox="0 0 118 43" fill="none" xmlns="http://www.w3.org/2000/svg">
<rect width="118" height="43" rx="11" fill="#EB5B5B"/>
<path d="M36.627 13.9805L36.7852 16.1777C38.1445 14.4785 39.9668 13.6289 42.252 13.6289C44.2676 13.6289 45.7676 14.2207 46.752 15.4043C47.7363 16.5879 48.2402 18.3574 48.2637 20.7129V33H43.1836V20.8359C43.1836 19.7578 42.9492 18.9785 42.4805 18.498C42.0117 18.0059 41.2324 17.7598 40.1426 17.7598C38.7129 17.7598 37.6406 18.3691 36.9258 19.5879V33H31.8457V13.9805H36.627ZM63.1523 33C62.918 32.543 62.748 31.9746 62.6426 31.2949C61.4121 32.666 59.8125 33.3516 57.8438 33.3516C55.9805 33.3516 54.4336 32.8125 53.2031 31.7344C51.9844 30.6562 51.375 29.2969 51.375 27.6562C51.375 25.6406 52.1191 24.0938 53.6074 23.0156C55.1074 21.9375 57.2695 21.3926 60.0938 21.3809H62.4316V20.291C62.4316 19.4121 62.2031 18.709 61.7461 18.1816C61.3008 17.6543 60.5918 17.3906 59.6191 17.3906C58.7637 17.3906 58.0898 17.5957 57.5977 18.0059C57.1172 18.416 56.877 18.9785 56.877 19.6934H51.7969C51.7969 18.5918 52.1367 17.5723 52.8164 16.6348C53.4961 15.6973 54.457 14.9648 55.6992 14.4375C56.9414 13.8984 58.3359 13.6289 59.8828 13.6289C62.2266 13.6289 64.084 14.2207 65.4551 15.4043C66.8379 16.5762 67.5293 18.2285 67.5293 20.3613V28.6055C67.541 30.4102 67.793 31.7754 68.2852 32.7012V33H63.1523ZM58.9512 29.4668C59.7012 29.4668 60.3926 29.3027 61.0254 28.9746C61.6582 28.6348 62.127 28.1836 62.4316 27.6211V24.3516H60.5332C57.9902 24.3516 56.6367 25.2305 56.4727 26.9883L56.4551 27.2871C56.4551 27.9199 56.6777 28.4414 57.123 28.8516C57.5684 29.2617 58.1777 29.4668 58.9512 29.4668ZM66.4746 6.22852C66.4746 7.55273 66.0879 8.66602 65.3145 9.56836C64.541 10.459 63.5977 10.9043 62.4844 10.9043C62.0391 10.9043 61.6406 10.8574 61.2891 10.7637C60.9492 10.6582 60.4746 10.4414 59.8652 10.1133C59.2559 9.78516 58.8164 9.58594 58.5469 9.51562C58.2773 9.43359 57.9844 9.39258 57.668 9.39258C57.2578 9.39258 56.9062 9.53906 56.6133 9.83203C56.332 10.125 56.1914 10.541 56.1914 11.0801L53.2383 10.9043C53.2383 9.60352 53.6191 8.49609 54.3809 7.58203C55.1543 6.66797 56.0977 6.21094 57.2109 6.21094C57.5625 6.21094 57.8906 6.25781 58.1953 6.35156C58.5117 6.43359 59.0215 6.64453 59.7246 6.98438C60.4277 7.32422 60.9141 7.5293 61.1836 7.59961C61.4531 7.66992 61.7344 7.70508 62.0273 7.70508C62.4375 7.70508 62.7891 7.56445 63.082 7.2832C63.3867 6.99023 63.5391 6.57422 63.5391 6.03516L66.4746 6.22852ZM70.6406 23.3145C70.6406 21.4277 71.0039 19.7461 71.7305 18.2695C72.457 16.793 73.5 15.6504 74.8594 14.8418C76.2305 14.0332 77.8184 13.6289 79.623 13.6289C82.1895 13.6289 84.2812 14.4141 85.8984 15.9844C87.5273 17.5547 88.4355 19.6875 88.623 22.3828L88.6582 23.6836C88.6582 26.6016 87.8438 28.9453 86.2148 30.7148C84.5859 32.4727 82.4004 33.3516 79.6582 33.3516C76.916 33.3516 74.7246 32.4727 73.084 30.7148C71.4551 28.957 70.6406 26.5664 70.6406 23.543V23.3145ZM75.7207 23.6836C75.7207 25.4883 76.0605 26.8711 76.7402 27.832C77.4199 28.7812 78.3926 29.2559 79.6582 29.2559C80.8887 29.2559 81.8496 28.7871 82.541 27.8496C83.2324 26.9004 83.5781 25.3887 83.5781 23.3145C83.5781 21.5449 83.2324 20.1738 82.541 19.2012C81.8496 18.2285 80.877 17.7422 79.623 17.7422C78.3809 17.7422 77.4199 18.2285 76.7402 19.2012C76.0605 20.1621 75.7207 21.6562 75.7207 23.6836Z" fill="white"/>
</svg>
