<svg width="118" height="43" viewBox="0 0 118 43" fill="none" xmlns="http://www.w3.org/2000/svg">
<rect width="118" height="43" rx="11" fill="#6AD996"/>
<path d="M42.252 27.7441C42.252 27.123 41.9414 26.6367 41.3203 26.2852C40.7109 25.9219 39.7266 25.5996 38.3672 25.3184C33.8438 24.3691 31.582 22.4473 31.582 19.5527C31.582 17.8652 32.2793 16.459 33.6738 15.334C35.0801 14.1973 36.9141 13.6289 39.1758 13.6289C41.5898 13.6289 43.5176 14.1973 44.959 15.334C46.4121 16.4707 47.1387 17.9473 47.1387 19.7637H42.0586C42.0586 19.0371 41.8242 18.4395 41.3555 17.9707C40.8867 17.4902 40.1543 17.25 39.1582 17.25C38.3027 17.25 37.6406 17.4434 37.1719 17.8301C36.7031 18.2168 36.4688 18.709 36.4688 19.3066C36.4688 19.8691 36.7324 20.3262 37.2598 20.6777C37.7988 21.0176 38.7012 21.3164 39.9668 21.5742C41.2324 21.8203 42.2988 22.1016 43.166 22.418C45.8496 23.4023 47.1914 25.1074 47.1914 27.5332C47.1914 29.2676 46.4473 30.6738 44.959 31.752C43.4707 32.8184 41.5488 33.3516 39.1934 33.3516C37.5996 33.3516 36.1816 33.0703 34.9395 32.5078C33.709 31.9336 32.7422 31.1543 32.0391 30.1699C31.3359 29.1738 30.9844 28.1016 30.9844 26.9531H35.8008C35.8477 27.8555 36.1816 28.5469 36.8027 29.0273C37.4238 29.5078 38.2559 29.748 39.2988 29.748C40.2715 29.748 41.0039 29.5664 41.4961 29.2031C42 28.8281 42.252 28.3418 42.252 27.7441ZM55.8398 33H50.7422V13.9805H55.8398V33ZM50.4434 9.05859C50.4434 8.29688 50.6953 7.66992 51.1992 7.17773C51.7148 6.68555 52.4121 6.43945 53.291 6.43945C54.1582 6.43945 54.8496 6.68555 55.3652 7.17773C55.8809 7.66992 56.1387 8.29688 56.1387 9.05859C56.1387 9.83203 55.875 10.4648 55.3477 10.957C54.832 11.4492 54.1465 11.6953 53.291 11.6953C52.4355 11.6953 51.7441 11.4492 51.2168 10.957C50.7012 10.4648 50.4434 9.83203 50.4434 9.05859ZM64.8047 13.9805L64.9629 16.1074C66.3105 14.4551 68.1328 13.6289 70.4297 13.6289C72.8789 13.6289 74.5605 14.5957 75.4746 16.5293C76.8105 14.5957 78.7148 13.6289 81.1875 13.6289C83.25 13.6289 84.7852 14.2324 85.793 15.4395C86.8008 16.6348 87.3047 18.4395 87.3047 20.8535V33H82.207V20.8711C82.207 19.793 81.9961 19.0078 81.5742 18.5156C81.1523 18.0117 80.4082 17.7598 79.3418 17.7598C77.8184 17.7598 76.7637 18.4863 76.1777 19.9395L76.1953 33H71.1152V20.8887C71.1152 19.7871 70.8984 18.9902 70.4648 18.498C70.0312 18.0059 69.293 17.7598 68.25 17.7598C66.8086 17.7598 65.7656 18.3574 65.1211 19.5527V33H60.041V13.9805H64.8047Z" fill="white"/>
</svg>
