<?xml version="1.0" encoding="UTF-8" standalone="no"?>
<svg
   xmlns:dc="http://purl.org/dc/elements/1.1/"
   xmlns:cc="http://creativecommons.org/ns#"
   xmlns:rdf="http://www.w3.org/1999/02/22-rdf-syntax-ns#"
   xmlns:svg="http://www.w3.org/2000/svg"
   xmlns="http://www.w3.org/2000/svg"
   xmlns:sodipodi="http://sodipodi.sourceforge.net/DTD/sodipodi-0.dtd"
   xmlns:inkscape="http://www.inkscape.org/namespaces/inkscape"
   width="479.14594mm"
   height="78.46537mm"
   viewBox="0 0 479.14594 78.46537"
   version="1.1"
   id="svg8"
   inkscape:version="1.0.2 (1.0.2+r75+1)"
   sodipodi:docname="logoRed.svg">
  <defs
     id="defs2" />
  <sodipodi:namedview
     id="base"
     pagecolor="#ffffff"
     bordercolor="#666666"
     borderopacity="1.0"
     inkscape:pageopacity="0.0"
     inkscape:pageshadow="2"
     inkscape:zoom="0.35355339"
     inkscape:cx="990.52893"
     inkscape:cy="328.56079"
     inkscape:document-units="mm"
     inkscape:current-layer="layer1"
     inkscape:document-rotation="0"
     showgrid="false"
     inkscape:window-width="1366"
     inkscape:window-height="768"
     inkscape:window-x="0"
     inkscape:window-y="0"
     inkscape:window-maximized="1" />
  <metadata
     id="metadata5">
    <rdf:RDF>
      <cc:Work
         rdf:about="">
        <dc:format>image/svg+xml</dc:format>
        <dc:type
           rdf:resource="http://purl.org/dc/dcmitype/StillImage" />
        <dc:title></dc:title>
      </cc:Work>
    </rdf:RDF>
  </metadata>
  <g
     inkscape:label="Layer 1"
     inkscape:groupmode="layer"
     id="layer1"
     transform="translate(635.27121,4.700433)">
    <g
       transform="matrix(0.15979699,0,0,-0.15979699,-635.47557,107.15746)"
       fill="#000000"
       stroke="none"
       id="g915">
      <path
         d="m 1073,679 c -4,-14 -11,-18 -22,-13 -9,4 -23,6 -31,6 -23,-1 -222,-119 -233,-137 -12,-22 9,-45 40,-45 20,0 22,-3 13,-19 -25,-47 -6,-147 38,-198 45,-52 79,-63 202,-63 77,0 120,4 128,12 8,8 12,52 12,133 0,115 1,121 23,130 36,16 27,47 -25,80 -42,27 -47,34 -47,67 -1,59 -9,68 -53,68 -32,0 -41,-4 -45,-21 z m 7,-152 c 35,-18 70,-74 70,-114 0,-51 -25,-100 -62,-123 -113,-69 -239,71 -168,188 33,53 107,76 160,49 z"
         id="path901"
         style="fill:#ff0000" />
      <path
         d="M 70,582 C 51,573 27,550 17,532 -20,469 20,414 123,386 210,362 238,350 244,334 267,274 138,248 68,300 35,324 7,323 2,297 c -5,-25 16,-47 63,-68 88,-40 213,-11 241,56 30,73 -5,115 -132,154 -102,31 -122,51 -84,83 33,27 103,21 148,-12 30,-22 34,-23 48,-8 61,61 -120,129 -216,80 z"
         id="path903" />
      <path
         d="M 489,577 C 427,544 389,480 389,407 c 0,-109 70,-186 176,-195 93,-8 185,37 160,78 -9,14 -30,12 -84,-7 -31,-11 -59,-14 -83,-9 -42,8 -98,57 -98,87 0,18 9,19 144,19 163,0 173,4 163,66 -20,124 -164,191 -278,131 z m 150,-51 c 31,-16 61,-56 61,-81 0,-13 -19,-15 -120,-15 -102,0 -120,2 -120,16 0,69 107,117 179,80 z"
         id="path905" />
      <path
         d="m 1316,585 c -14,-37 3,-44 105,-47 l 99,-3 -105,-125 c -146,-175 -142,-190 50,-190 122,0 155,8 155,39 0,26 -19,31 -126,31 h -95 l 99,118 c 114,136 124,151 111,175 -9,15 -28,17 -148,17 -114,0 -140,-3 -145,-15 z"
         id="path907" />
      <path
         d="m 1772,579 c -109,-54 -137,-209 -55,-300 62,-69 147,-87 228,-50 112,51 150,189 80,291 -53,76 -165,102 -253,59 z m 179,-75 c 114,-109 -21,-298 -152,-211 -45,30 -73,87 -65,132 8,38 48,92 80,106 39,16 105,4 137,-27 z"
         id="path909" />
      <path
         d="m 2157,593 c -4,-3 -7,-89 -7,-190 0,-161 2,-184 16,-190 39,-15 49,8 54,135 5,121 5,122 38,154 28,28 39,33 82,33 43,0 54,-5 82,-33 l 33,-32 3,-120 c 4,-126 12,-148 52,-135 19,6 20,14 20,120 0,63 -5,126 -11,142 -14,38 -67,92 -106,109 -33,14 -243,20 -256,7 z"
         id="path911" />
      <path
         d="m 2735,586 c -70,-31 -115,-102 -115,-181 0,-146 143,-233 290,-177 32,13 46,24 48,40 5,32 -22,38 -77,18 -58,-20 -84,-20 -127,0 -32,15 -64,57 -64,83 0,7 55,12 146,13 164,3 172,7 160,70 -21,113 -154,181 -261,134 z m 135,-61 c 33,-17 60,-52 60,-77 0,-16 -12,-18 -120,-18 -77,0 -120,4 -120,10 0,24 32,70 58,84 35,20 85,20 122,1 z"
         id="path913" />
    </g>
  </g>
</svg>
