<?xml version="1.0" standalone="no"?>
<!DOCTYPE svg PUBLIC "-//W3C//DTD SVG 20010904//EN"
 "http://www.w3.org/TR/2001/REC-SVG-20010904/DTD/svg10.dtd">
<svg version="1.0" xmlns="http://www.w3.org/2000/svg"
 width="300.000000pt" height="91.000000pt" viewBox="0 0 300.000000 91.000000"
 preserveAspectRatio="xMidYMid meet">

<g transform="translate(0.000000,91.000000) scale(0.100000,-0.100000)"
fill="#000000" stroke="none">
<path d="M1073 679 c-4 -14 -11 -18 -22 -13 -9 4 -23 6 -31 6 -23 -1 -222
-119 -233 -137 -12 -22 9 -45 40 -45 20 0 22 -3 13 -19 -25 -47 -6 -147 38
-198 45 -52 79 -63 202 -63 77 0 120 4 128 12 8 8 12 52 12 133 0 115 1 121
23 130 36 16 27 47 -25 80 -42 27 -47 34 -47 67 -1 59 -9 68 -53 68 -32 0 -41
-4 -45 -21z m7 -152 c35 -18 70 -74 70 -114 0 -51 -25 -100 -62 -123 -113 -69
-239 71 -168 188 33 53 107 76 160 49z"/>
<path d="M70 582 c-19 -9 -43 -32 -53 -50 -37 -63 3 -118 106 -146 87 -24 115
-36 121 -52 23 -60 -106 -86 -176 -34 -33 24 -61 23 -66 -3 -5 -25 16 -47 63
-68 88 -40 213 -11 241 56 30 73 -5 115 -132 154 -102 31 -122 51 -84 83 33
27 103 21 148 -12 30 -22 34 -23 48 -8 61 61 -120 129 -216 80z"/>
<path d="M489 577 c-62 -33 -100 -97 -100 -170 0 -109 70 -186 176 -195 93 -8
185 37 160 78 -9 14 -30 12 -84 -7 -31 -11 -59 -14 -83 -9 -42 8 -98 57 -98
87 0 18 9 19 144 19 163 0 173 4 163 66 -20 124 -164 191 -278 131z m150 -51
c31 -16 61 -56 61 -81 0 -13 -19 -15 -120 -15 -102 0 -120 2 -120 16 0 69 107
117 179 80z"/>
<path d="M1316 585 c-14 -37 3 -44 105 -47 l99 -3 -105 -125 c-146 -175 -142
-190 50 -190 122 0 155 8 155 39 0 26 -19 31 -126 31 l-95 0 99 118 c114 136
124 151 111 175 -9 15 -28 17 -148 17 -114 0 -140 -3 -145 -15z"/>
<path d="M1772 579 c-109 -54 -137 -209 -55 -300 62 -69 147 -87 228 -50 112
51 150 189 80 291 -53 76 -165 102 -253 59z m179 -75 c114 -109 -21 -298 -152
-211 -45 30 -73 87 -65 132 8 38 48 92 80 106 39 16 105 4 137 -27z"/>
<path d="M2157 593 c-4 -3 -7 -89 -7 -190 0 -161 2 -184 16 -190 39 -15 49 8
54 135 5 121 5 122 38 154 28 28 39 33 82 33 43 0 54 -5 82 -33 l33 -32 3
-120 c4 -126 12 -148 52 -135 19 6 20 14 20 120 0 63 -5 126 -11 142 -14 38
-67 92 -106 109 -33 14 -243 20 -256 7z"/>
<path d="M2735 586 c-70 -31 -115 -102 -115 -181 0 -146 143 -233 290 -177 32
13 46 24 48 40 5 32 -22 38 -77 18 -58 -20 -84 -20 -127 0 -32 15 -64 57 -64
83 0 7 55 12 146 13 164 3 172 7 160 70 -21 113 -154 181 -261 134z m135 -61
c33 -17 60 -52 60 -77 0 -16 -12 -18 -120 -18 -77 0 -120 4 -120 10 0 24 32
70 58 84 35 20 85 20 122 1z"/>
</g>
</svg>
